# xmcd
#
# Track frame offsets: 
#        150
#        20782
#        50175
#
# Disc length: 894 seconds
#
# Revision: 0
# Processed by: cddbd v1.5.2PL0 Copyright (c) Steve Scherf et al.
# Submitted via: ExactAudioCopy v0.95a3
#
DISCID=27037c03
DTITLE=Kicking Back feat. Taxman - Everything [CD Single)
DYEAR=1990
DGENRE=10 Records - TENCD 307
TTITLE0=Everything (Original 7'' Mix)
TTITLE1=Everything (Kickin' Mix)
TTITLE2=Devotion
EXTD=
EXTT0=
EXTT1=
EXTT2=
PLAYORDER=
